<mxfile host="app.diagrams.net" modified="2024-01-27T04:23:46.153Z" agent="Mozilla/5.0 (Windows NT 10.0; Win64; x64) AppleWebKit/537.36 (KHTML, like Gecko) Chrome/120.0.0.0 Safari/537.36" version="23.0.2" etag="iPJEwUEyS5_-gsw0EFUs" type="github">
  <diagram name="Страница — 1" id="kN8z1hcUUCDf_d-B2PgP">
    <mxGraphModel>
      <root>
        <mxCell id="0" />
        <mxCell id="1" parent="0" />
      </root>
    </mxGraphModel>
  </diagram>
</mxfile>
